<svg width="48" height="48" viewBox="0 0 48 48" fill="none" xmlns="http://www.w3.org/2000/svg">
<g clip-path="url(#clip0)">
<path d="M43.7054 38.4771L41.7678 37.8043C42.8525 36.9452 43.5502 35.618 43.5502 34.1301V32.71C43.5502 30.126 41.4478 28.0236 38.8638 28.0236C36.2798 28.0236 34.1774 30.126 34.1774 32.71V34.1301C34.1774 35.618 34.8754 36.9452 35.9601 37.8043L34.0221 38.4771C32.7792 38.9088 31.7344 39.7006 30.9862 40.7102H25.7516V38.6444C25.7516 35.9253 24.0256 33.4991 21.457 32.6074L19.519 31.9347C20.6038 31.0756 21.3018 29.7484 21.3018 28.2605V26.8403C21.3018 24.256 19.1993 22.1539 16.6154 22.1539C14.0314 22.1539 11.929 24.2563 11.929 26.8403V28.2605C11.929 29.7484 12.627 31.0756 13.7113 31.9347L11.7737 32.6074C9.20508 33.4991 7.47913 35.9253 7.47913 38.6444V40.7102H0.710083C0.317871 40.7102 0 41.0281 0 41.4203V47.2899C0 47.6821 0.317871 48 0.710083 48H30.2487C30.2805 48 30.312 47.9971 30.3431 47.993C30.3743 47.9971 30.4058 48 30.438 48H47.2899C47.6821 48 48 47.6821 48 47.2899V44.514C48 41.7953 46.2744 39.3691 43.7054 38.4771ZM35.5975 32.71C35.5975 30.9089 37.0627 29.4437 38.8638 29.4437C40.6648 29.4437 42.13 30.9089 42.13 32.71V34.1301C42.13 35.9312 40.6648 37.3964 38.8638 37.3964C37.0627 37.3964 35.5975 35.9312 35.5975 34.1301V32.71ZM13.3491 26.8403C13.3491 25.0393 14.8143 23.5741 16.6154 23.5741C18.4164 23.5741 19.8816 25.0393 19.8816 26.8403V28.2605C19.8816 30.0615 18.4164 31.5267 16.6154 31.5267C14.8143 31.5267 13.3491 30.0615 13.3491 28.2605V26.8403ZM18.1051 32.9469L18.795 33.1864L16.6154 36.9683L14.4357 33.1864L15.1256 32.9469H18.1051ZM8.89929 38.6444C8.89929 36.5295 10.2418 34.6425 12.2395 33.9489L13.0701 33.6606L16.0001 38.7451C16.1268 38.9652 16.3616 39.1007 16.6154 39.1007C16.8691 39.1007 17.1039 38.9652 17.2306 38.7451L20.1606 33.6606L20.9912 33.9489C22.9889 34.6425 24.3311 36.5295 24.3311 38.6444V40.7102H8.89929V38.6444ZM1.42017 42.1304H30.1904C29.8909 42.8734 29.7279 43.6798 29.7279 44.514V46.5798H1.42017V42.1304ZM46.5798 46.5798H31.1481V44.514C31.1481 42.3992 32.4902 40.5125 34.4879 39.8185L37.374 38.8165H40.3535L43.2396 39.8185C45.2377 40.5125 46.5798 42.3992 46.5798 44.514V46.5798Z" fill="black"/>
<path d="M43.5029 5.1123H36.29C35.8978 5.1123 35.58 5.43054 35.58 5.82239C35.58 6.2146 35.8978 6.53247 36.29 6.53247H43.5029C45.1996 6.53247 46.5798 7.91272 46.5798 9.60974V19.4557C46.5798 21.1523 45.1996 22.5326 43.5029 22.5326H33.7515C33.3593 22.5326 33.0414 22.8505 33.0414 23.2427V26.2625L29.5199 22.7406C29.3866 22.6073 29.2061 22.5326 29.0178 22.5326H23.2427C21.546 22.5326 20.1654 21.1523 20.1654 19.4557V9.60938C20.1654 7.91272 21.5457 6.53247 23.2427 6.53247H32.9703C33.3625 6.53247 33.6804 6.2146 33.6804 5.82239C33.6804 5.43018 33.3625 5.1123 32.9703 5.1123H29.2544V4.49707C29.2544 2.01746 27.2369 0 24.7573 0H4.49707C2.01746 0 0 2.01746 0 4.49707V6.06702C0 6.45923 0.317871 6.7771 0.710083 6.7771C1.10229 6.7771 1.42017 6.45923 1.42017 6.06702V4.49707C1.42017 2.80042 2.80042 1.42017 4.49707 1.42017H24.7573C26.454 1.42017 27.8342 2.80042 27.8342 4.49707V5.1123H23.2427C20.7631 5.1123 18.7456 7.12976 18.7456 9.60938V17.4199H11.3137C10.9215 17.4199 10.6036 17.7378 10.6036 18.13V21.1498L7.08215 17.6279C6.94885 17.4946 6.76831 17.4199 6.58008 17.4199H4.49707C2.80042 17.4199 1.42017 16.0397 1.42017 14.343V9.36877C1.42017 8.97656 1.10229 8.65869 0.710083 8.65869C0.317871 8.65869 0 8.97656 0 9.36877V14.343C0 16.823 2.01746 18.8401 4.49707 18.8401H6.28564L10.8116 23.3661C10.9475 23.502 11.1292 23.5741 11.3137 23.5737C11.4053 23.5737 11.4976 23.5562 11.5854 23.5199C11.8506 23.41 12.0238 23.1511 12.0238 22.864V18.8401H18.7456V19.4557C18.7456 21.9353 20.7631 23.9524 23.2427 23.9524H28.7238L33.2494 28.4784C33.3853 28.6143 33.5669 28.6864 33.7515 28.6864C33.843 28.6864 33.9353 28.6688 34.0232 28.6322C34.2883 28.5223 34.4615 28.2634 34.4615 27.9763V23.9524H43.5029C45.9825 23.9524 48 21.9353 48 19.4557V9.60938C48 7.12976 45.9825 5.1123 43.5029 5.1123Z" fill="black"/>
</g>
<defs>
<clipPath id="clip0">
<rect width="48" height="48" fill="white"/>
</clipPath>
</defs>
</svg>
