<svg width="48" height="48" viewBox="0 0 48 48" fill="none" xmlns="http://www.w3.org/2000/svg">
<path d="M22.0005 5.6145C21.3187 5.373 20.604 5.25 19.875 5.25V6.75C20.4322 6.75 20.979 6.84375 21.4995 7.02825L22.0005 5.6145Z" fill="black"/>
<path d="M17.7495 5.6145C15.2078 6.516 13.5 8.931 13.5 11.625H15C15 9.56475 16.3065 7.7175 18.2505 7.02825L17.7495 5.6145Z" fill="black"/>
<path d="M39 34.9395V32.1143C43.2495 31.3973 46.5 27.7005 46.5 23.25C46.5 18.2873 42.4627 14.25 37.5 14.25C36.4305 14.25 35.391 14.436 34.3995 14.8035C33.9638 12.7748 32.157 11.25 30 11.25C29.9977 11.25 29.9955 11.25 29.9933 11.25C29.796 5.84025 25.332 1.5 19.875 1.5C14.292 1.5 9.75 6.042 9.75 11.625C9.75 12.039 9.7755 12.453 9.8265 12.8647C5.0955 13.5585 1.5 17.6415 1.5 22.5C1.5 27.1005 4.707 30.9578 9 31.9778V34.9395L3.96975 39.9697C3.82875 40.11 3.75 40.3013 3.75 40.5V43.5H5.25V40.8105L10.2802 35.7803C10.4212 35.64 10.5 35.4487 10.5 35.25V32.2118C10.7483 32.2313 10.9965 32.25 11.25 32.25H13.5V36.4395L9.96975 39.9697C9.82875 40.11 9.75 40.3013 9.75 40.5V43.5H11.25V40.8105L14.7803 37.2803C14.9213 37.14 15 36.9487 15 36.75V32.25H18.75V37.9395L16.7197 39.9697C16.5787 40.11 16.5 40.3013 16.5 40.5V43.5H18V40.8105L20.0303 38.7803C20.1713 38.64 20.25 38.4487 20.25 38.25V32.25H23.25V43.5H24.75V32.25H27.75V38.25C27.75 38.4487 27.8287 38.64 27.9697 38.7803L30 40.8105V43.5H31.5V40.5C31.5 40.3013 31.4213 40.11 31.2803 39.9697L29.25 37.9395V32.25H33V36.75C33 36.9487 33.0787 37.14 33.2197 37.2803L36.75 40.8105V43.5H38.25V40.5C38.25 40.3013 38.1712 40.11 38.0303 39.9697L34.5 36.4395V32.25H37.5V35.25C37.5 35.4487 37.5788 35.64 37.7197 35.7803L42.75 40.8105V43.5H44.25V40.5C44.25 40.3013 44.1712 40.11 44.0303 39.9697L39 34.9395ZM11.25 30.75C6.70125 30.75 3 27.0487 3 22.5C3 18.1553 6.39975 14.5425 10.74 14.277C10.9567 14.2635 11.1578 14.157 11.289 13.9845C11.4218 13.812 11.472 13.59 11.4285 13.377C11.31 12.8018 11.25 12.2122 11.25 11.625C11.25 6.86925 15.1193 3 19.875 3C24.6308 3 28.5 6.86925 28.5 11.625C28.5 11.709 28.494 11.7922 28.488 11.8748L28.4775 12.0458C28.4663 12.2775 28.563 12.5018 28.7407 12.6525C28.917 12.8025 29.1532 12.8632 29.3812 12.8153C31.2675 12.4185 32.9993 13.8938 32.9978 15.7372C32.9948 15.7597 32.9843 15.8543 32.9827 15.8768C32.9685 16.1445 33.099 16.4003 33.3247 16.5458C33.5505 16.6913 33.8355 16.7055 34.0755 16.5825C35.1502 16.0305 36.3015 15.75 37.5 15.75C41.6355 15.75 45 19.1145 45 23.25C45 27.3855 41.6355 30.75 37.5 30.75H11.25Z" fill="black"/>
<path d="M42.75 45H44.25V46.5H42.75V45Z" fill="black"/>
<path d="M36.75 45H38.25V46.5H36.75V45Z" fill="black"/>
<path d="M30 45H31.5V46.5H30V45Z" fill="black"/>
<path d="M3.75 45H5.25V46.5H3.75V45Z" fill="black"/>
<path d="M9.75 45H11.25V46.5H9.75V45Z" fill="black"/>
<path d="M16.5 45H18V46.5H16.5V45Z" fill="black"/>
<path d="M23.25 45H24.75V46.5H23.25V45Z" fill="black"/>
<path d="M20.25 18H21.75V19.5H20.25V18Z" fill="black"/>
<path d="M20.25 21H21.75V22.5H20.25V21Z" fill="black"/>
<path d="M20.25 24H21.75V25.5H20.25V24Z" fill="black"/>
<path d="M23.25 18H24.75V19.5H23.25V18Z" fill="black"/>
<path d="M23.25 21H24.75V22.5H23.25V21Z" fill="black"/>
<path d="M23.25 24H24.75V25.5H23.25V24Z" fill="black"/>
<path d="M26.25 18H27.75V19.5H26.25V18Z" fill="black"/>
<path d="M26.25 21H27.75V22.5H26.25V21Z" fill="black"/>
<path d="M26.25 24H27.75V25.5H26.25V24Z" fill="black"/>
<path d="M29.25 27H26.25V28.5H30C30.4148 28.5 30.75 28.164 30.75 27.75V23.25H29.25V27Z" fill="black"/>
<path d="M22.5 15H18C17.5853 15 17.25 15.336 17.25 15.75V20.25H18.75V16.5H22.5V15Z" fill="black"/>
<path d="M21.75 27H24.75V28.5H21.75V27Z" fill="black"/>
<path d="M24 15H26.25V16.5H24V15Z" fill="black"/>
<path d="M30 15H27.75V16.5H29.25V21.75H30.75V15.75C30.75 15.336 30.4148 15 30 15Z" fill="black"/>
<path d="M18.75 21.75H17.25V27.75C17.25 28.164 17.5853 28.5 18 28.5H20.25V27H18.75V21.75Z" fill="black"/>
</svg>
