<svg width="48" height="48" viewBox="0 0 48 48" fill="none" xmlns="http://www.w3.org/2000/svg">
<g clip-path="url(#clip0)">
<path d="M7.4625 24.3487L9.96722 23.158L11.7303 23.8883L12.6595 26.5013C12.7114 26.6472 12.8071 26.7734 12.9335 26.8626C13.0599 26.9519 13.2109 26.9999 13.3657 27H16.6343C16.7892 27 16.9402 26.9521 17.0668 26.8628C17.1933 26.7735 17.289 26.6472 17.3409 26.5013L18.2702 23.8883L20.0333 23.158L22.538 24.3487C22.6779 24.4151 22.8349 24.4366 22.9875 24.4102C23.1401 24.3839 23.2808 24.311 23.3903 24.2016L25.7016 21.8906C25.8111 21.7811 25.884 21.6404 25.9104 21.4878C25.9367 21.3352 25.9151 21.1781 25.8487 21.0382L24.658 18.5335L25.3883 16.7705L28.0013 15.8412C28.1473 15.7893 28.2736 15.6935 28.3629 15.5669C28.4521 15.4403 28.5 15.2892 28.5 15.1343V11.8657C28.5 11.7108 28.4521 11.5598 28.3628 11.4332C28.2735 11.3067 28.1472 11.211 28.0013 11.1591L25.3883 10.2298L24.658 8.46675L25.8487 5.96203C25.9152 5.82212 25.9368 5.66503 25.9105 5.51235C25.8841 5.35967 25.8111 5.2189 25.7016 5.10938L23.3906 2.79844C23.2811 2.68891 23.1404 2.61597 22.9878 2.58963C22.8352 2.5633 22.6781 2.58485 22.5382 2.65134L20.0335 3.84197L18.2705 3.11166L17.3409 0.498656C17.289 0.352764 17.1933 0.22651 17.0668 0.137227C16.9402 0.0479434 16.7892 7.53725e-06 16.6343 0L13.3657 0C13.2108 7.53725e-06 13.0598 0.0479434 12.9332 0.137227C12.8067 0.22651 12.711 0.352764 12.6591 0.498656L11.7298 3.11166L9.96675 3.84197L7.4625 2.65134C7.32253 2.58468 7.16535 2.56303 7.01257 2.58937C6.8598 2.61571 6.71894 2.68875 6.60938 2.79844L4.29844 5.10938C4.18875 5.21894 4.11571 5.3598 4.08937 5.51257C4.06303 5.66535 4.08468 5.82253 4.15134 5.9625L5.34197 8.46722L4.61166 10.2303L1.99866 11.1591C1.85276 11.211 1.72651 11.3067 1.63723 11.4332C1.54794 11.5598 1.50001 11.7108 1.5 11.8657V15.1343C1.50001 15.2892 1.54794 15.4402 1.63723 15.5668C1.72651 15.6933 1.85276 15.789 1.99866 15.8409L4.61166 16.7702L5.34197 18.5333L4.15134 21.038C4.08479 21.1779 4.0632 21.335 4.08954 21.4876C4.11588 21.6403 4.18885 21.7811 4.29844 21.8906L6.60938 24.2016C6.71898 24.3112 6.85984 24.3842 7.01259 24.4105C7.16535 24.4368 7.32252 24.4152 7.4625 24.3487ZM6.85538 18.2672L5.86987 15.8882C5.82971 15.7912 5.76963 15.7038 5.69354 15.6316C5.61744 15.5593 5.52702 15.5038 5.42813 15.4688L3 14.605V12.395L5.42813 11.5312C5.527 11.4961 5.6174 11.4406 5.69346 11.3683C5.76953 11.296 5.82957 11.2086 5.86969 11.1116L6.85538 8.73281C6.8956 8.63582 6.91501 8.53146 6.91234 8.42648C6.90968 8.32151 6.885 8.21827 6.83991 8.12344L5.73366 5.79572L7.29609 4.23337L9.62381 5.33963C9.71863 5.38476 9.82188 5.40947 9.92686 5.41213C10.0318 5.4148 10.1362 5.39536 10.2332 5.35509L12.6122 4.36959C12.709 4.32942 12.7964 4.26936 12.8686 4.19332C12.9407 4.11728 12.9962 4.02693 13.0312 3.92813L13.895 1.5H16.105L16.9688 3.92813C17.0039 4.027 17.0594 4.1174 17.1317 4.19346C17.204 4.26953 17.2914 4.32957 17.3884 4.36969L19.7672 5.35538C19.8642 5.39565 19.9685 5.41508 20.0735 5.41241C20.1785 5.40975 20.2817 5.38505 20.3766 5.33991L22.7043 4.23366L24.267 5.79637L23.1608 8.12409C23.1157 8.21892 23.091 8.32217 23.0883 8.42714C23.0856 8.53211 23.1051 8.63647 23.1453 8.73347L24.1308 11.1125C24.1709 11.2092 24.231 11.2965 24.3069 11.3686C24.3829 11.4408 24.4732 11.4962 24.5719 11.5312L27 12.3948V14.6048L24.5719 15.4688C24.473 15.5039 24.3826 15.5594 24.3065 15.6317C24.2305 15.704 24.1704 15.7914 24.1303 15.8884L23.1446 18.2672C23.1044 18.3642 23.085 18.4685 23.0877 18.5735C23.0903 18.6785 23.115 18.7817 23.1601 18.8766L24.2663 21.2043L22.7036 22.767L20.3759 21.6608C20.2811 21.6156 20.1778 21.5909 20.0729 21.5882C19.9679 21.5856 19.8635 21.605 19.7665 21.6453L17.3875 22.6308C17.2908 22.6709 17.2035 22.731 17.1314 22.8069C17.0592 22.8829 17.0038 22.9732 16.9688 23.0719L16.105 25.5H13.895L13.0312 23.0719C12.9961 22.973 12.9406 22.8826 12.8683 22.8065C12.796 22.7305 12.7086 22.6704 12.6116 22.6303L10.2328 21.6446C10.1358 21.6044 10.0315 21.5849 9.92648 21.5876C9.8215 21.5903 9.71826 21.615 9.62344 21.6601L7.29572 22.7663L5.73337 21.2039L6.83963 18.8762C6.88471 18.7814 6.90941 18.6783 6.91212 18.5734C6.91483 18.4685 6.8955 18.3642 6.85538 18.2672Z" fill="black"/>
<path d="M15 20.25C16.335 20.25 17.6401 19.8541 18.7501 19.1124C19.8601 18.3707 20.7253 17.3165 21.2362 16.0831C21.7471 14.8497 21.8808 13.4925 21.6203 12.1831C21.3599 10.8738 20.717 9.67104 19.773 8.72703C18.829 7.78303 17.6262 7.14015 16.3169 6.8797C15.0075 6.61925 13.6503 6.75292 12.4169 7.26382C11.1835 7.77471 10.1293 8.63987 9.38758 9.7499C8.64588 10.8599 8.25 12.165 8.25 13.5C8.25201 15.2896 8.96381 17.0053 10.2292 18.2708C11.4947 19.5362 13.2104 20.248 15 20.25ZM15 8.25C16.0384 8.25 17.0534 8.55791 17.9167 9.13479C18.7801 9.71166 19.453 10.5316 19.8504 11.4909C20.2477 12.4502 20.3517 13.5058 20.1491 14.5242C19.9466 15.5426 19.4465 16.4781 18.7123 17.2123C17.9781 17.9465 17.0426 18.4466 16.0242 18.6491C15.0058 18.8517 13.9502 18.7477 12.9909 18.3504C12.0316 17.953 11.2117 17.2801 10.6348 16.4167C10.0579 15.5534 9.75 14.5384 9.75 13.5C9.75156 12.1081 10.3052 10.7736 11.2894 9.78942C12.2736 8.80519 13.6081 8.25157 15 8.25Z" fill="black"/>
<path d="M29.5122 36.1383L28.5269 38.5173C28.4867 38.6142 28.4672 38.7186 28.4699 38.8236C28.4726 38.9286 28.4972 39.0318 28.5423 39.1266L29.6486 41.4543L28.0859 43.0171L25.7582 41.9108C25.6633 41.8657 25.5601 41.841 25.4551 41.8384C25.3501 41.8357 25.2458 41.8551 25.1488 41.8953L22.7706 42.8802C22.6737 42.9203 22.5862 42.9804 22.5139 43.0564C22.4416 43.1325 22.3861 43.2229 22.3509 43.3218L21.4872 45.7501H19.2774L18.4138 43.3219C18.3786 43.2231 18.3231 43.1327 18.2509 43.0566C18.1786 42.9805 18.0911 42.9205 17.9942 42.8804L15.6152 41.8949C15.5182 41.8546 15.4138 41.8352 15.3088 41.8378C15.2038 41.8405 15.1006 41.8652 15.0058 41.9103L12.6781 43.0166L11.1153 41.4539L12.2216 39.1262C12.2667 39.0313 12.2914 38.9281 12.294 38.8231C12.2967 38.7181 12.2773 38.6138 12.2371 38.5168L11.2518 36.1378C11.2116 36.041 11.1516 35.9537 11.0756 35.8816C10.9997 35.8094 10.9094 35.754 10.8108 35.7188L8.38263 34.8554V32.645L10.8108 31.7815C10.9096 31.7463 11 31.6908 11.0761 31.6186C11.1522 31.5463 11.2122 31.4588 11.2524 31.3619L12.2377 28.9829C12.2779 28.8859 12.2974 28.7815 12.2947 28.6765C12.292 28.5716 12.2673 28.4683 12.2222 28.3735L10.8885 25.5677L9.53406 26.2126L10.7247 28.7173L9.99447 30.4803L7.38147 31.4095C7.23556 31.4614 7.1093 31.5572 7.02001 31.6837C6.93073 31.8103 6.8828 31.9613 6.88281 32.1162V35.3849C6.8828 35.5397 6.93073 35.6908 7.02001 35.8173C7.1093 35.9439 7.23556 36.0397 7.38147 36.0916L9.99447 37.0207L10.7247 38.7838L9.53406 41.2885C9.46758 41.4284 9.44604 41.5854 9.4724 41.738C9.49875 41.8907 9.57171 42.0314 9.68125 42.1409L11.9922 44.4516C12.1017 44.5611 12.2424 44.6341 12.395 44.6604C12.5476 44.6867 12.7046 44.6652 12.8445 44.5987L15.3492 43.4081L17.1117 44.1384L18.041 46.7514C18.093 46.8974 18.1888 47.0237 18.3154 47.113C18.442 47.2023 18.5932 47.2502 18.7481 47.2501H22.0168C22.1716 47.2501 22.3227 47.2021 22.4492 47.1129C22.5758 47.0236 22.6716 46.8973 22.7235 46.7514L23.6526 44.1384L25.4157 43.4081L27.9203 44.5987C28.0602 44.6652 28.2172 44.6867 28.3698 44.6604C28.5224 44.6341 28.6631 44.5611 28.7726 44.4516L31.0839 42.1407C31.1934 42.0312 31.2664 41.8905 31.2928 41.7379C31.3191 41.5852 31.2976 41.4282 31.2311 41.2883L30.0405 38.7836L30.8983 36.7126L29.5122 36.1383Z" fill="black"/>
<path d="M31.0845 25.3594L28.7732 23.0484C28.6637 22.9389 28.523 22.866 28.3704 22.8397C28.2178 22.8133 28.0608 22.8349 27.9209 22.9013L25.1152 24.2351L25.7592 25.5899L28.0869 24.4837L29.6496 26.0464L28.5434 28.3741C28.4983 28.4689 28.4736 28.5722 28.471 28.6771C28.4683 28.7821 28.4877 28.8865 28.5279 28.9835L29.3788 31.0377L30.7645 30.4636L30.0413 28.7174L31.232 26.2127C31.2986 26.0727 31.3202 25.9154 31.2938 25.7626C31.2674 25.6098 31.1943 25.4689 31.0845 25.3594Z" fill="black"/>
<path d="M20.3828 40.5C21.7178 40.5 23.0229 40.1041 24.1329 39.3624C25.2429 38.6207 26.1081 37.5665 26.619 36.3331C27.1299 35.0997 27.2636 33.7425 27.0031 32.4331C26.7427 31.1238 26.0998 29.921 25.1558 28.977C24.2118 28.033 23.009 27.3902 21.6997 27.1297C20.3903 26.8693 19.0331 27.0029 17.7997 27.5138C16.5663 28.0247 15.5121 28.8899 14.7704 29.9999C14.0287 31.1099 13.6328 32.415 13.6328 33.75C13.6348 35.5396 14.3466 37.2553 15.6121 38.5208C16.8775 39.7862 18.5932 40.498 20.3828 40.5ZM20.3828 28.5C21.4212 28.5 22.4362 28.8079 23.2996 29.3848C24.1629 29.9617 24.8358 30.7816 25.2332 31.7409C25.6305 32.7002 25.7345 33.7558 25.5319 34.7742C25.3294 35.7926 24.8293 36.7281 24.0951 37.4623C23.3609 38.1965 22.4254 38.6966 21.407 38.8991C20.3886 39.1017 19.333 38.9977 18.3737 38.6004C17.4144 38.203 16.5945 37.5301 16.0176 36.6668C15.4407 35.8034 15.1328 34.7884 15.1328 33.75C15.1344 32.3581 15.688 31.0236 16.6722 30.0394C17.6565 29.0552 18.9909 28.5016 20.3828 28.5Z" fill="black"/>
<path d="M46.0008 13.4091L43.3878 12.4798L42.6575 10.7167L43.8481 8.21203C43.9146 8.07212 43.9362 7.91503 43.9099 7.76235C43.8835 7.60967 43.8106 7.4689 43.701 7.35938L41.39 5.04844C41.2805 4.93891 41.1398 4.86597 40.9872 4.83963C40.8346 4.8133 40.6775 4.83485 40.5377 4.90134L38.033 6.09197L36.2699 5.36166L35.3407 2.74866C35.2888 2.6027 35.193 2.47641 35.0664 2.38712C34.9398 2.29783 34.7887 2.24993 34.6338 2.25H31.3651C31.2102 2.24999 31.0591 2.29792 30.9326 2.3872C30.8061 2.47648 30.7103 2.60275 30.6584 2.74866L29.7292 5.36166L27.6582 6.21966L28.2322 7.60538L30.6112 6.61987C30.7082 6.57968 30.7956 6.51959 30.8678 6.4435C30.9401 6.36741 30.9955 6.277 31.0307 6.17813L31.8941 3.75H34.1042L34.9682 6.17813C35.0033 6.277 35.0588 6.3674 35.1311 6.44346C35.2034 6.51953 35.2908 6.57957 35.3878 6.61969L37.7666 7.60538C37.8636 7.6456 37.968 7.66501 38.0729 7.66234C38.1779 7.65968 38.2812 7.635 38.376 7.58991L40.7037 6.48366L42.2664 8.04638L41.1602 10.3741C41.1151 10.4689 41.0904 10.5722 41.0877 10.6771C41.0851 10.7821 41.1045 10.8865 41.1447 10.9835L42.1302 13.3625C42.1704 13.4592 42.2304 13.5465 42.3064 13.6186C42.3824 13.6907 42.4726 13.7461 42.5713 13.7812L44.9994 14.6447V16.8547L42.5713 17.7188C42.4724 17.7539 42.382 17.8095 42.306 17.8818C42.2299 17.9541 42.1699 18.0415 42.1297 18.1385L41.144 20.5172C41.1038 20.6142 41.0844 20.7185 41.0871 20.8235C41.0897 20.9285 41.1144 21.0317 41.1595 21.1266L42.2658 23.4543L40.3288 25.3913L41.39 26.4516L43.701 24.1406C43.8105 24.0311 43.8834 23.8904 43.9098 23.7378C43.9361 23.5852 43.9146 23.4281 43.8481 23.2882L42.6575 20.7835L43.3878 19.0205L46.0008 18.0913C46.1467 18.0394 46.273 17.9436 46.3623 17.817C46.4516 17.6904 46.4995 17.5393 46.4994 17.3843V14.1157C46.4994 13.9608 46.4515 13.8098 46.3622 13.6832C46.2729 13.5567 46.1467 13.461 46.0008 13.4091Z" fill="black"/>
<path d="M32.9994 21C31.9527 21.003 30.9292 20.6919 30.0612 20.107C29.1933 19.522 28.5208 18.6901 28.1307 17.7188L26.7402 18.2813C27.2559 19.5559 28.1486 20.6427 29.2987 21.3961C30.4489 22.1496 31.8018 22.5338 33.1763 22.4974C34.5508 22.461 35.8814 22.0057 36.9901 21.1924C38.0988 20.3791 38.9326 19.2466 39.3801 17.9465C39.8276 16.6463 39.8673 15.2406 39.494 13.9172C39.1207 12.5939 38.3522 11.4161 37.2912 10.5414C36.2303 9.6668 34.9275 9.13703 33.5573 9.02301C32.187 8.90899 30.8146 9.21616 29.6237 9.90342L30.375 11.2018C31.0725 10.7997 31.853 10.5634 32.6564 10.5111C33.4598 10.4589 34.2644 10.5921 35.008 10.9004C35.7517 11.2088 36.4145 11.684 36.9451 12.2894C37.4758 12.8948 37.8601 13.6141 38.0684 14.3918C38.2767 15.1694 38.3034 15.9845 38.1463 16.7741C37.9893 17.5637 37.6528 18.3066 37.1628 18.9454C36.6728 19.5842 36.0425 20.1017 35.3205 20.458C34.5986 20.8142 33.8044 20.9997 32.9994 21Z" fill="black"/>
<path d="M41.5074 28.5H39.0001V25.5C39.0001 24.9033 38.763 24.331 38.3411 23.909C37.9191 23.4871 37.3468 23.25 36.7501 23.25C36.1534 23.25 35.5811 23.4871 35.1591 23.909C34.7371 24.331 34.5001 24.9033 34.5001 25.5V31.9394L33.9965 31.4356C33.5574 30.9966 32.962 30.7499 32.3411 30.7499C31.7202 30.7499 31.1247 30.9966 30.6857 31.4356C30.2466 31.8746 30 32.4701 30 33.091C30 33.7119 30.2466 34.3073 30.6857 34.7464L34.5001 38.5606V39.75H33.7501C33.5512 39.75 33.3604 39.829 33.2198 39.9697C33.0791 40.1103 33.0001 40.3011 33.0001 40.5V47.25H34.5001V41.25H43.5001V47.25H45.0001V40.5C45.0001 40.3011 44.9211 40.1103 44.7804 39.9697C44.6398 39.829 44.449 39.75 44.2501 39.75H43.5001V38.5606L45.0376 37.0231C45.7358 36.3249 46.2114 35.4353 46.404 34.4668C46.5967 33.4983 46.4979 32.4945 46.12 31.5822C45.7421 30.6699 45.1022 29.8901 44.2812 29.3415C43.4602 28.7929 42.4949 28.5 41.5074 28.5ZM43.9771 35.9625L42.2197 37.7198C42.0791 37.8605 42.0001 38.0511 42.0001 38.25V39.75H36.0001V38.25C36.0001 38.1515 35.9807 38.054 35.943 37.963C35.9053 37.872 35.8501 37.7893 35.7804 37.7197L31.7465 33.6856C31.6672 33.6078 31.6042 33.515 31.561 33.4127C31.5179 33.3104 31.4954 33.2005 31.4949 33.0894C31.4944 32.9784 31.5159 32.8683 31.5582 32.7656C31.6005 32.6629 31.6627 32.5696 31.7412 32.4911C31.8197 32.4126 31.913 32.3504 32.0157 32.3081C32.1184 32.2658 32.2285 32.2443 32.3395 32.2448C32.4506 32.2453 32.5605 32.2678 32.6628 32.311C32.7651 32.3541 32.8579 32.4172 32.9357 32.4964L34.7197 34.2803C34.8246 34.3852 34.9583 34.4567 35.1038 34.4856C35.2493 34.5146 35.4001 34.4997 35.5371 34.4429C35.6742 34.3862 35.7913 34.29 35.8737 34.1667C35.9561 34.0433 36.0001 33.8983 36.0001 33.75V25.5C36.0001 25.3011 36.0791 25.1103 36.2198 24.9697C36.3604 24.829 36.5512 24.75 36.7501 24.75C36.949 24.75 37.1398 24.829 37.2804 24.9697C37.4211 25.1103 37.5001 25.3011 37.5001 25.5V29.25C37.5001 29.4489 37.5791 29.6397 37.7198 29.7803C37.8604 29.921 38.0512 30 38.2501 30H41.5074C42.1982 30 42.8736 30.2048 43.448 30.5886C44.0223 30.9724 44.47 31.5179 44.7344 32.1561C44.9987 32.7944 45.0679 33.4966 44.9331 34.1742C44.7983 34.8517 44.4656 35.4741 43.9771 35.9625Z" fill="black"/>
<path d="M40.5 42.75H42V44.25H40.5V42.75Z" fill="black"/>
</g>
<defs>
<clipPath id="clip0">
<rect width="48" height="48" fill="white"/>
</clipPath>
</defs>
</svg>
