<svg width="48" height="48" viewBox="0 0 48 48" fill="none" xmlns="http://www.w3.org/2000/svg">
<g clip-path="url(#clip0)">
<path d="M44.9183 1.58997H3.0815C1.38264 1.58997 0 2.9726 0 4.67147V34.5948C0 36.2941 1.38264 37.6767 3.0815 37.6767H17.9242V44.4948H17.0006C16.4698 44.4948 16.0408 44.9246 16.0408 45.4549C16.0408 45.9849 16.4698 46.4147 17.0006 46.4147H30.9992C31.5299 46.4147 31.9594 45.9849 31.9594 45.4549C31.9594 44.9246 31.5299 44.4948 30.9992 44.4948H30.0673V37.6767H44.9183C46.6171 37.6767 48.0002 36.2941 48.0002 34.5948V4.67147C48.0002 2.9726 46.6171 1.58997 44.9183 1.58997ZM3.0815 3.50991H44.9183C45.5589 3.50991 46.0798 4.03122 46.0798 4.67147V30.0946H1.91994V4.67147C1.91994 4.03122 2.44125 3.50991 3.0815 3.50991ZM28.1474 44.4948H19.8442V37.6767H28.1474V44.4948ZM44.9183 35.7568H3.0815C2.44125 35.7568 1.91994 35.2355 1.91994 34.5948V32.0149H46.0798V34.5948C46.0798 35.2355 45.5589 35.7568 44.9183 35.7568Z" fill="black"/>
<path d="M19.616 21.4796L12.4059 17.8653V17.8284L19.616 14.2145V12.9418L11.0605 17.3489V18.3452L19.616 22.7519V21.4796Z" fill="black"/>
<path d="M27.2183 10.1207H25.9645L20.8203 23.489H22.0561L27.2183 10.1207Z" fill="black"/>
<path d="M36.9392 17.3309L28.3838 12.9418V14.2145L35.6481 17.8284V17.8653L28.3838 21.4796V22.7519L36.9392 18.3632V17.3309Z" fill="black"/>
</g>
<defs>
<clipPath id="clip0">
<rect width="48" height="48" fill="white"/>
</clipPath>
</defs>
</svg>
