<svg width="48" height="48" viewBox="0 0 48 48" fill="none" xmlns="http://www.w3.org/2000/svg">
<path d="M33.4706 30.062L31.7499 28.3412C32.0367 27.8296 32.2711 27.2925 32.4507 26.7354H34.9775C35.3659 26.7354 35.6806 26.4207 35.6806 26.0323V21.9676C35.6806 21.5792 35.3659 21.2645 34.9775 21.2645H32.4506C32.271 20.7076 32.0366 20.1704 31.7498 19.6588L33.4705 17.938C33.7451 17.6634 33.7451 17.2183 33.4705 16.9438L30.828 14.3012C30.6961 14.1693 30.5173 14.0953 30.3308 14.0953C30.1442 14.0953 29.9655 14.1693 29.8335 14.3012L28.0463 16.0885C27.6216 15.8706 27.1806 15.6877 26.7273 15.5414V13.0145C26.7273 12.6261 26.4126 12.3114 26.0242 12.3114H22.2872C21.8988 12.3114 21.5841 12.6261 21.5841 13.0145V15.4475C21.0206 15.6064 20.4753 15.8207 19.9536 16.0885L18.1663 14.3012C18.0344 14.1693 17.8556 14.0953 17.6691 14.0953C17.4825 14.0953 17.3038 14.1693 17.1718 14.3012L14.5294 16.9438C14.2548 17.2184 14.2548 17.6635 14.5294 17.938L16.2501 19.6588C15.9632 20.1704 15.7288 20.7076 15.5492 21.2645H13.0225C12.6341 21.2645 12.3193 21.5792 12.3193 21.9676V26.0323C12.3193 26.4207 12.6341 26.7354 13.0225 26.7354H15.5492C15.7288 27.2925 15.9632 27.8296 16.2501 28.3412L14.5294 30.062C14.2548 30.3366 14.2548 30.7817 14.5294 31.0563L17.1718 33.6988C17.4464 33.9732 17.8916 33.9734 18.1661 33.6988L19.9535 31.9115C20.4751 32.1792 21.0206 32.3936 21.584 32.5525V34.9855C21.584 35.3739 21.8987 35.6886 22.2871 35.6886H26.0241C26.4125 35.6886 26.7272 35.3739 26.7272 34.9855V32.4586C27.1805 32.3123 27.6215 32.1294 28.0462 31.9115L29.8335 33.6988C30.108 33.9733 30.5532 33.9733 30.8278 33.6988L33.4703 31.0563C33.7451 30.7817 33.7451 30.3366 33.4706 30.062ZM30.3309 32.2072L28.6666 30.543C28.4393 30.3158 28.0867 30.2714 27.8103 30.4358C27.1975 30.7999 26.5381 31.0734 25.8506 31.2486C25.5391 31.328 25.3211 31.6085 25.3211 31.93V34.2824H22.9903V32.0025C22.9903 31.6706 22.7583 31.3839 22.4337 31.3148C21.6422 31.146 20.8871 30.8504 20.1896 30.4359C19.9132 30.2715 19.5605 30.3158 19.3332 30.5431L17.669 32.2073L16.021 30.5593L17.6335 28.9467C17.868 28.7121 17.9067 28.3455 17.7262 28.067C17.2843 27.3855 16.9589 26.6425 16.7593 25.8587C16.6799 25.5472 16.3994 25.3292 16.078 25.3292H13.7256V22.6709H16.0781C16.3996 22.6709 16.6801 22.4529 16.7595 22.1414C16.9593 21.3577 17.2846 20.6147 17.7264 19.9332C17.9069 19.6547 17.8682 19.2881 17.6336 19.0535L16.0211 17.4409L17.6692 15.7928L19.3333 17.4571C19.5607 17.6843 19.9132 17.7286 20.1897 17.5643C20.8872 17.1498 21.6423 16.8541 22.4339 16.6854C22.7585 16.6163 22.9905 16.3296 22.9905 15.9977V13.7178H25.3212V16.0702C25.3212 16.3917 25.5392 16.6722 25.8507 16.7516C26.5382 16.9268 27.1976 17.2003 27.8104 17.5644C28.0866 17.7287 28.4393 17.6844 28.6668 17.4571L30.331 15.7929L31.979 17.441L30.3665 19.0536C30.1319 19.2882 30.0932 19.6548 30.2738 19.9333C30.7156 20.6148 31.0409 21.3577 31.2406 22.1415C31.32 22.453 31.6005 22.671 31.922 22.671H34.2744V25.3293H31.9219C31.6004 25.3293 31.3199 25.5473 31.2405 25.8588C31.0408 26.6425 30.7154 27.3855 30.2737 28.0671C30.0931 28.3455 30.1318 28.7122 30.3664 28.9468L31.9789 30.5594L30.3309 32.2072Z" fill="black"/>
<path d="M24.0001 20.4557C23.8197 20.4557 23.6387 20.4694 23.4621 20.4964C23.0782 20.555 22.8145 20.9137 22.8731 21.2976C22.9317 21.6816 23.2907 21.9451 23.6743 21.8865C23.781 21.8702 23.8906 21.8619 24.0002 21.8619C25.179 21.8619 26.1382 22.821 26.1382 23.9999C26.1382 25.1788 25.1791 26.1379 24.0002 26.1379C22.8213 26.1379 21.8622 25.1788 21.8622 23.9999C21.8622 23.8897 21.8706 23.7792 21.8872 23.6719C21.9461 23.2881 21.6828 22.9291 21.2991 22.87C20.9153 22.8107 20.5563 23.0742 20.4972 23.4581C20.4698 23.636 20.4561 23.8183 20.4561 23.9998C20.4561 25.9541 22.046 27.544 24.0003 27.544C25.9546 27.544 27.5445 25.9541 27.5445 23.9998C27.5445 22.0455 25.9544 20.4557 24.0001 20.4557Z" fill="black"/>
<path d="M41.6148 4.2616C40.4439 4.2616 39.4912 5.21428 39.4912 6.38522C39.4912 7.55616 40.4439 8.50885 41.6148 8.50885C42.7858 8.50885 43.7385 7.55616 43.7385 6.38522C43.7385 5.21428 42.7858 4.2616 41.6148 4.2616ZM41.6148 7.10269C41.2192 7.10269 40.8975 6.78085 40.8975 6.38532C40.8975 5.98978 41.2193 5.66794 41.6148 5.66794C42.0104 5.66794 42.3322 5.98978 42.3322 6.38532C42.3322 6.78085 42.0104 7.10269 41.6148 7.10269Z" fill="black"/>
<path d="M47.297 4.26159H46.1018C45.6104 3.22134 44.7788 2.38978 43.7385 1.89834V0.703125C43.7385 0.314719 43.4238 0 43.0354 0H40.1943C39.8059 0 39.4912 0.314719 39.4912 0.703125V1.89825C38.4508 2.38978 37.6194 3.22125 37.1278 4.26159H35.9326C35.5442 4.26159 35.2295 4.57631 35.2295 4.96472V7.80581C35.2295 8.19422 35.5442 8.50894 35.9326 8.50894H37.1277C37.6193 9.54928 38.4508 10.3808 39.4912 10.8724V12.0675C39.4912 12.4559 39.8059 12.7706 40.1943 12.7706H43.0354C43.4238 12.7706 43.7385 12.4559 43.7385 12.0675V10.8723C44.7789 10.3807 45.6104 9.54928 46.1019 8.50894H47.297C47.6854 8.50894 48.0001 8.19422 48.0001 7.80581V4.96472C48.0001 4.57631 47.6854 4.26159 47.297 4.26159ZM46.5939 7.10269H45.6321C45.3344 7.10269 45.069 7.29019 44.9695 7.57078C44.6139 8.57334 43.803 9.38437 42.8004 9.73997C42.5198 9.83953 42.3323 10.1049 42.3323 10.4026V11.3644H40.8974V10.4026C40.8974 10.1048 40.7099 9.83944 40.4293 9.73997C39.4268 9.38437 38.6157 8.57344 38.2602 7.57078C38.1606 7.29019 37.8952 7.10269 37.5975 7.10269H36.6357V5.66784H37.5975C37.8953 5.66784 38.1607 5.48034 38.2602 5.19975C38.6157 4.19719 39.4267 3.38625 40.4293 3.03066C40.7099 2.93109 40.8974 2.66569 40.8974 2.36803V1.40625H42.3323V2.36803C42.3323 2.66578 42.5198 2.93119 42.8004 3.03066C43.8029 3.38625 44.6139 4.19709 44.9695 5.19975C45.069 5.48034 45.3345 5.66784 45.6321 5.66784H46.5939V7.10269Z" fill="black"/>
<path d="M43.7385 41.6148C43.7385 40.4439 42.7858 39.4912 41.6148 39.4912C40.4439 39.4912 39.4912 40.4439 39.4912 41.6148C39.4912 42.7858 40.4439 43.7385 41.6148 43.7385C42.7858 43.7385 43.7385 42.7858 43.7385 41.6148ZM40.8974 41.6148C40.8974 41.2192 41.2192 40.8975 41.6147 40.8975C42.0103 40.8975 42.3321 41.2193 42.3321 41.6148C42.3321 42.0104 42.0103 42.3322 41.6147 42.3322C41.2192 42.3322 40.8974 42.0104 40.8974 41.6148Z" fill="black"/>
<path d="M47.297 39.4911H46.1019C45.6104 38.4507 44.7789 37.6192 43.7385 37.1277V35.9325C43.7385 35.5441 43.4238 35.2294 43.0354 35.2294H40.1943C39.8059 35.2294 39.4912 35.5441 39.4912 35.9325V37.1827C39.301 37.3777 39.2339 37.6747 39.3447 37.9425C39.4929 38.3014 39.904 38.472 40.2629 38.3239C40.3177 38.3013 40.373 38.28 40.4291 38.2601C40.7098 38.1607 40.8974 37.8952 40.8974 37.5974V36.6356H42.3323V37.5974C42.3323 37.8952 42.5198 38.1606 42.8004 38.26C43.8029 38.6156 44.6139 39.4266 44.9695 40.4292C45.069 40.7098 45.3345 40.8973 45.6321 40.8973H46.5939V42.3322H45.6321C45.3344 42.3322 45.069 42.5197 44.9695 42.8003C44.6139 43.8028 43.803 44.6138 42.8004 44.9694C42.5198 45.0689 42.3323 45.3343 42.3323 45.632V46.5938H40.8974V45.632C40.8974 45.3342 40.7099 45.0688 40.4293 44.9694C39.4268 44.6138 38.6157 43.8029 38.2602 42.8003C38.1606 42.5197 37.8952 42.3322 37.5975 42.3322H36.6357V40.8973H37.5975C37.8955 40.8973 38.161 40.7096 38.2603 40.4288C38.2812 40.3698 38.3037 40.3115 38.3277 40.254C38.4765 39.8953 38.3065 39.4838 37.9478 39.335C37.6754 39.2217 37.3722 39.293 37.1769 39.4911H35.9326C35.5442 39.4911 35.2295 39.8058 35.2295 40.1942V43.0353C35.2295 43.4237 35.5442 43.7384 35.9326 43.7384H37.1278C37.6194 44.7788 38.4508 45.6102 39.4912 46.1018V47.2969C39.4912 47.6853 39.8059 48 40.1943 48H43.0354C43.4238 48 43.7385 47.6853 43.7385 47.2969V46.1017C44.7788 45.6102 45.6104 44.7787 46.1018 43.7384H47.297C47.6854 43.7384 48.0001 43.4237 48.0001 43.0353V40.1942C48.0001 39.8059 47.6854 39.4911 47.297 39.4911Z" fill="black"/>
<path d="M8.50906 6.38522C8.50906 5.21428 7.55638 4.2616 6.38544 4.2616C5.2145 4.2616 4.26172 5.21428 4.26172 6.38522C4.26172 7.55616 5.21441 8.50885 6.38534 8.50885C7.55628 8.50885 8.50906 7.55625 8.50906 6.38522ZM5.66797 6.38522C5.66797 5.9896 5.98981 5.66785 6.38534 5.66785C6.78088 5.66785 7.10272 5.98969 7.10272 6.38522C7.10272 6.78075 6.78088 7.1026 6.38534 7.1026C5.98981 7.1026 5.66797 6.78085 5.66797 6.38522Z" fill="black"/>
<path d="M0.703125 8.50894H1.89825C2.38978 9.54928 3.22125 10.3807 4.26159 10.8723V12.0675C4.26159 12.4559 4.57631 12.7706 4.96472 12.7706H7.80581C8.19422 12.7706 8.50894 12.4559 8.50894 12.0675V10.8724C9.54928 10.3808 10.3808 9.54928 10.8724 8.50894H12.0675C12.4559 8.50894 12.7706 8.19422 12.7706 7.80581V4.96472C12.7706 4.57631 12.4559 4.26159 12.0675 4.26159H10.8723C10.3807 3.22125 9.54928 2.38978 8.50894 1.89825V0.703125C8.50894 0.314719 8.19422 0 7.80581 0H4.96472C4.57631 0 4.26159 0.314719 4.26159 0.703125V1.95347C4.07137 2.14856 4.00444 2.44556 4.11516 2.71341C4.26356 3.07219 4.67475 3.24262 5.03372 3.09431C5.08828 3.07172 5.14369 3.05044 5.19975 3.03056C5.48034 2.931 5.66784 2.66559 5.66784 2.36794V1.40625H7.10269V2.36803C7.10269 2.66578 7.29019 2.93119 7.57078 3.03066C8.57334 3.38625 9.38437 4.19719 9.73997 5.19975C9.83953 5.48034 10.1049 5.66784 10.4026 5.66784H11.3644V7.10269H10.4026C10.1048 7.10269 9.83944 7.29019 9.73997 7.57078C9.38437 8.57334 8.57334 9.38437 7.57078 9.73997C7.29019 9.83953 7.10269 10.1049 7.10269 10.4026V11.3644H5.66784V10.4026C5.66784 10.1048 5.48034 9.83944 5.19975 9.73997C4.19719 9.38437 3.38625 8.57334 3.03066 7.57078C2.93109 7.29019 2.66569 7.10269 2.36803 7.10269H1.40625V5.66784H2.36803C2.66578 5.66784 2.93128 5.48025 3.03075 5.19966C3.05156 5.14078 3.07397 5.08266 3.09787 5.02537C3.24712 4.66687 3.07753 4.25522 2.71913 4.10588C2.44622 3.99225 2.14294 4.06331 1.94756 4.26159H0.703125C0.314719 4.26159 0 4.57631 0 4.96472V7.80581C0 8.19413 0.314719 8.50894 0.703125 8.50894Z" fill="black"/>
<path d="M12.0675 39.4911H10.8724C10.3808 38.4507 9.54928 37.6192 8.50894 37.1276V35.9325C8.50894 35.5441 8.19422 35.2294 7.80581 35.2294H4.96472C4.57631 35.2294 4.26159 35.5441 4.26159 35.9325V37.1277C3.22125 37.6192 2.38978 38.4507 1.89825 39.4911H0.703125C0.314719 39.4911 0 39.8058 0 40.1942V43.0353C0 43.4237 0.314719 43.7384 0.703125 43.7384H1.89834C2.38978 44.7787 3.22134 45.6102 4.26159 46.1017V47.2969C4.26159 47.6853 4.57631 48 4.96472 48H7.80581C8.19422 48 8.50894 47.6853 8.50894 47.2969V46.1018C9.54928 45.6102 10.3807 44.7788 10.8723 43.7384H12.0675C12.4559 43.7384 12.7706 43.4237 12.7706 43.0353V40.1942C12.7706 39.8059 12.4558 39.4911 12.0675 39.4911ZM11.3644 42.3322H10.4026C10.1048 42.3322 9.83944 42.5197 9.73997 42.8003C9.38437 43.8028 8.57344 44.6138 7.57078 44.9694C7.29019 45.0689 7.10269 45.3343 7.10269 45.632V46.5938H5.66784V45.632C5.66784 45.3342 5.48034 45.0688 5.19975 44.9694C4.19719 44.6138 3.38625 43.8028 3.03066 42.8003C2.93109 42.5197 2.66569 42.3322 2.36803 42.3322H1.40625V40.8973H2.36803C2.66578 40.8973 2.93119 40.7098 3.03066 40.4292C3.38625 39.4267 4.19709 38.6156 5.19975 38.26C5.48034 38.1605 5.66784 37.8951 5.66784 37.5974V36.6356H7.10269V37.5974C7.10269 37.8952 7.29019 38.1606 7.57078 38.26C8.57334 38.6156 9.38437 39.4266 9.73997 40.4292C9.83953 40.7098 10.1049 40.8973 10.4026 40.8973H11.3644V42.3322Z" fill="black"/>
<path d="M6.38534 39.4911C5.21441 39.4911 4.26172 40.4438 4.26172 41.6147C4.26172 42.7857 5.21441 43.7383 6.38534 43.7383C7.55628 43.7383 8.50897 42.7857 8.50897 41.6147C8.50897 40.4438 7.55637 39.4911 6.38534 39.4911ZM6.38534 42.3322C5.98972 42.3322 5.66797 42.0103 5.66797 41.6148C5.66797 41.2193 5.98981 40.8974 6.38534 40.8974C6.78087 40.8974 7.10272 41.2193 7.10272 41.6148C7.10272 42.0103 6.78097 42.3322 6.38534 42.3322Z" fill="black"/>
<path d="M11.6173 10.6231C11.3427 10.3486 10.8975 10.3486 10.6229 10.6231C10.3483 10.8978 10.3483 11.3429 10.6229 11.6175L12.6425 13.6371H12.0672C11.6787 13.6371 11.364 13.9518 11.364 14.3402C11.364 14.7286 11.6787 15.0433 12.0672 15.0433H14.34C14.7228 15.0433 15.0435 14.7226 15.0431 14.3397V12.0674C15.0431 11.679 14.7284 11.3643 14.34 11.3643C13.9516 11.3643 13.6369 11.679 13.6369 12.0674V12.6428L11.6173 10.6231Z" fill="black"/>
<path d="M32.9595 14.4099C32.9945 14.7645 33.303 15.0435 33.6592 15.0435H35.9321C36.3205 15.0435 36.6352 14.7287 36.6352 14.3403C36.6352 13.9519 36.3205 13.6372 35.9321 13.6372H35.3567L37.3763 11.6176C37.6509 11.343 37.6509 10.8978 37.3763 10.6232C37.1016 10.3487 36.6565 10.3487 36.3819 10.6232L34.3623 12.6428V12.0675C34.3623 11.679 34.0476 11.3643 33.6592 11.3643C33.2708 11.3643 32.9561 11.679 32.9561 12.0675V14.3399C32.956 14.3632 32.9572 14.3866 32.9595 14.4099Z" fill="black"/>
<path d="M15.0398 33.4009C15.0049 33.0457 14.6959 32.7672 14.3401 32.7672H12.0672C11.6788 32.7672 11.3641 33.0819 11.3641 33.4703C11.3641 33.8587 11.6788 34.1735 12.0672 34.1735H12.6426L10.623 36.1929C10.3483 36.4676 10.3483 36.9127 10.6229 37.1872C10.7603 37.3246 10.9402 37.3932 11.1202 37.3932C11.3001 37.3932 11.4801 37.3246 11.6173 37.1873L13.637 35.1678V35.7431C13.637 36.1315 13.9517 36.4462 14.3401 36.4462C14.7285 36.4462 15.0432 36.1315 15.0432 35.7431V33.4706C15.0432 33.4473 15.042 33.424 15.0398 33.4009Z" fill="black"/>
<path d="M36.382 37.1873C36.5192 37.3246 36.6992 37.3932 36.8791 37.3932C37.059 37.3932 37.239 37.3246 37.3764 37.1872C37.651 36.9126 37.651 36.4675 37.3763 36.1929L35.3567 34.1735H35.932C36.3205 34.1735 36.6352 33.8587 36.6352 33.4703C36.6352 33.0819 36.3205 32.7672 35.932 32.7672H33.6592C33.2771 32.7672 32.9559 33.0874 32.9561 33.4706V35.7431C32.9561 36.1315 33.2708 36.4462 33.6592 36.4462C34.0476 36.4462 34.3623 36.1315 34.3623 35.7431V35.1678L36.382 37.1873Z" fill="black"/>
</svg>
