<svg width="321" height="61" viewBox="0 0 321 61" fill="none" xmlns="http://www.w3.org/2000/svg">
<g clip-path="url(#clip0)">
<path d="M83.9634 37.1052C85.2899 38.5526 86.8816 39.6052 88.8713 40.3947C90.8609 41.1842 93.1159 41.5789 95.9014 41.5789C97.2279 41.5789 98.5543 41.4473 99.6155 41.3158C100.809 41.1842 101.738 40.921 102.666 40.5263C103.595 40.2631 104.391 39.8684 105.187 39.6052C105.85 39.2105 106.513 38.9473 107.044 38.6842L106.115 36.7105C105.584 36.9737 105.054 37.2368 104.523 37.5C103.993 37.7631 103.462 37.8947 102.799 38.1579C102.136 38.2894 101.473 38.5526 100.677 38.5526C99.8808 38.6842 98.9523 38.6842 97.8911 38.6842C95.9014 38.6842 94.177 38.2894 92.9832 37.5C91.6568 36.7105 90.7283 35.6579 89.9324 34.4737C89.2692 33.1579 88.7386 31.5789 88.4733 29.8684C88.208 28.0263 88.0754 26.1842 88.0754 24.0789C88.0754 22.5 88.208 20.7894 88.3407 19.0789C88.4733 17.3684 88.8713 15.921 89.5345 14.6052C90.1977 13.2894 90.9936 12.2368 92.1874 11.3158C93.3812 10.5263 94.9729 9.99996 96.9626 9.99996C98.8196 9.99996 100.411 10.5263 101.738 11.4473C103.064 12.3684 103.86 13.9473 104.258 15.921H106.38V9.47365C105.717 9.21049 105.054 8.94733 104.258 8.68418C103.462 8.42102 102.666 8.28944 101.738 8.15786C100.809 8.02628 100.013 8.02628 99.0849 7.8947C98.289 7.8947 97.4932 7.76312 96.8299 7.76312C93.9118 7.76312 91.5242 8.15786 89.4018 8.94733C87.4122 9.73681 85.6878 10.921 84.3613 12.3684C83.0349 13.8158 82.1064 15.6579 81.4432 17.7631C80.7799 19.8684 80.5146 22.3684 80.5146 25C80.5146 27.5 80.7799 29.8684 81.4432 31.8421C81.8411 34.0789 82.7696 35.7894 83.9634 37.1052Z" fill="#1A9F29"/>
<path d="M213.69 40.5263C215.282 40.3948 216.874 39.8684 218.068 39.2105C219.394 38.4211 220.455 37.3684 221.119 35.9211C221.914 34.4737 222.312 32.5 222.312 30C222.312 28.1579 222.047 26.7105 221.516 25.3948C220.986 24.079 220.19 23.1579 218.996 22.2369C217.802 21.4474 216.343 20.9211 214.486 20.5263C212.629 20.1316 210.374 20 207.721 20H204.936V12.2369C204.936 11.4474 205.068 10.9211 205.466 10.6579C205.864 10.3948 206.528 10.3948 207.589 10.3948H211.568C212.762 10.3948 213.823 10.3948 214.619 10.5263C215.415 10.6579 216.078 10.7895 216.476 11.1842C217.007 11.579 217.404 12.1053 217.67 12.7632C217.935 13.4211 218.333 14.3421 218.598 15.5263H220.323V8.28949H197.773H195.916V9.34212C196.049 9.34212 196.181 9.4737 196.579 9.4737C196.977 9.60528 197.242 9.73686 197.375 9.86844C197.508 10 197.64 10.2632 197.773 10.6579C197.773 11.0526 197.906 11.4474 197.906 11.9737V18.5526V30.5263V37.1053C197.906 37.6316 197.906 38.1579 197.773 38.4211C197.773 38.8158 197.64 39.079 197.375 39.2105C197.242 39.3421 196.977 39.6053 196.579 39.6053C196.181 39.7369 196.049 39.7369 195.916 39.7369V40.7895H208.252C210.242 40.7895 211.966 40.7895 213.69 40.5263ZM205.599 38.1579C205.334 37.8948 205.201 37.6316 205.201 37.2369C205.201 36.8421 205.069 36.3158 205.069 35.6579V21.9737H207.854C210.374 21.9737 212.231 22.6316 213.292 23.9474C214.354 25.2632 214.884 27.3684 214.884 30.2632C214.884 32.2369 214.752 33.6842 214.354 34.8684C213.956 36.0527 213.558 36.8421 212.895 37.5C212.231 38.0263 211.568 38.4211 210.905 38.6842C210.109 38.8158 209.313 38.9474 208.517 38.9474C207.721 38.8158 207.058 38.8158 206.66 38.6842C206.262 38.5526 205.864 38.4211 205.599 38.1579Z" fill="#1A9F29"/>
<path d="M178.805 39.7369C178.672 39.7369 178.539 39.6053 178.142 39.6053C177.744 39.4737 177.478 39.3421 177.346 39.2105C177.213 39.079 177.08 38.8158 176.948 38.4211C176.948 38.0263 176.815 37.6316 176.815 37.1053V28.0263H180.131C181.856 28.0263 183.447 27.8948 185.039 27.6316C186.631 27.3684 187.957 26.8421 189.151 26.1842C190.345 25.3948 191.273 24.4737 191.937 23.0263C192.6 21.7105 192.998 19.8684 192.998 17.6316C192.998 15.5263 192.6 13.8158 192.069 12.6316C191.406 11.4474 190.477 10.3948 189.416 9.73686C188.355 9.07896 187.029 8.68423 185.57 8.55265C184.111 8.42107 182.651 8.28949 181.06 8.28949H169.918H168.061V9.34212C168.193 9.34212 168.326 9.4737 168.724 9.4737C169.122 9.60528 169.387 9.73686 169.52 9.86844C169.652 10 169.785 10.2632 169.918 10.6579C169.918 11.0526 170.05 11.4474 170.05 11.9737V36.9737C170.05 37.5 170.05 38.0263 169.918 38.2895C169.918 38.6842 169.785 38.9474 169.52 39.079C169.387 39.2105 169.122 39.4737 168.724 39.4737C168.326 39.6053 168.193 39.6053 168.061 39.6053V40.6579H178.805V39.7369ZM176.948 11.9737C176.948 11.7105 176.948 11.4474 177.08 11.1842C177.08 10.9211 177.213 10.7895 177.346 10.6579C177.478 10.5263 177.744 10.3948 178.142 10.3948C178.539 10.3948 178.937 10.2632 179.601 10.2632C180.396 10.2632 181.192 10.3948 181.988 10.5263C182.784 10.7895 183.315 11.1842 183.978 11.7105C184.508 12.2369 184.906 13.0263 185.304 13.9474C185.57 14.8684 185.702 16.0526 185.702 17.3684C185.702 20.1316 185.304 22.2369 184.508 23.6842C183.713 25.1316 182.254 25.9211 180.264 25.9211H176.948V11.9737Z" fill="#1A9F29"/>
<path d="M163.684 33.2895H161.562C161.296 34.6053 161.031 35.5263 160.766 36.3158C160.5 37.1053 160.235 37.6316 159.705 38.0263C159.307 38.4211 158.643 38.6842 157.848 38.6842C157.052 38.8158 155.991 38.8158 154.531 38.8158C153.205 38.8158 152.144 38.8158 151.481 38.6842C150.685 38.5526 150.154 38.4211 149.756 38.1579C149.358 37.8948 149.093 37.5 149.093 37.1053C148.96 36.579 148.96 36.0526 148.96 35.2632V25H153.338C153.736 25 154.134 25 154.664 25C155.195 25 155.725 25.1316 156.256 25.1316C156.786 25.1316 157.317 25.2632 157.848 25.3948C158.378 25.5263 158.776 25.6579 159.174 25.9211V21.7105C158.776 21.9737 158.378 22.1053 157.848 22.2369C157.317 22.3684 156.786 22.5 156.256 22.5C155.725 22.6316 155.195 22.6316 154.664 22.6316C154.134 22.6316 153.736 22.6316 153.338 22.6316H148.96V11.8421C148.96 11.1842 149.093 10.6579 149.226 10.3948C149.491 10.1316 149.889 10.1316 150.552 10.1316H154.134C155.327 10.1316 156.389 10.1316 157.184 10.2632C157.98 10.3948 158.643 10.5263 159.041 10.9211C159.572 11.3158 159.97 11.8421 160.235 12.5C160.501 13.1579 160.898 14.079 161.164 15.2632H162.888V8.28949H141.93H140.073V9.34212C140.206 9.34212 140.339 9.4737 140.736 9.4737C141.134 9.60528 141.4 9.73686 141.532 9.86844C141.665 10 141.798 10.2632 141.93 10.6579C141.93 11.0526 142.063 11.4474 142.063 11.9737V36.9737C142.063 37.5 142.063 38.0263 141.93 38.2895C141.93 38.6842 141.798 38.9474 141.532 39.079C141.4 39.2105 141.134 39.4737 140.736 39.4737C140.339 39.6053 140.206 39.6053 140.073 39.6053V40.6579H163.684V33.2895Z" fill="#1A9F29"/>
<path d="M127.604 40.5263C129.195 40.3948 130.787 39.8684 131.981 39.2105C133.307 38.4211 134.369 37.3684 135.164 35.9211C135.96 34.4737 136.358 32.5 136.358 30C136.358 28.1579 136.093 26.7105 135.562 25.3948C135.032 24.079 134.236 23.1579 133.042 22.2369C131.848 21.4474 130.389 20.9211 128.532 20.5263C126.675 20.1316 124.42 20 121.767 20H118.982V12.2369C118.982 11.4474 119.114 10.9211 119.512 10.6579C119.91 10.3948 120.573 10.3948 121.635 10.3948H125.614C126.808 10.3948 127.869 10.3948 128.665 10.5263C129.461 10.6579 130.124 10.7895 130.522 11.1842C131.052 11.579 131.45 12.1053 131.716 12.7632C131.981 13.4211 132.379 14.3421 132.644 15.5263H134.369V8.28949H111.819H109.962V9.34212C110.095 9.34212 110.227 9.4737 110.625 9.4737C111.023 9.60528 111.288 9.73686 111.421 9.86844C111.554 10 111.686 10.2632 111.819 10.6579C111.819 11.0526 111.952 11.4474 111.952 11.9737V12.6316V18.4211V30.2632V35.1316C111.952 35.1316 111.952 35.1316 111.952 35.2632V36.9737C111.952 37.5 111.952 37.8948 111.819 38.2895C111.819 38.6842 111.686 38.9474 111.421 39.079C111.288 39.2105 111.023 39.4737 110.625 39.4737C110.227 39.6053 110.095 39.6053 109.962 39.6053V40.7895H122.298C124.288 40.7895 125.879 40.7895 127.604 40.5263ZM119.512 38.1579C119.247 37.8948 119.114 37.6316 119.114 37.2369C119.114 36.8421 118.982 36.3158 118.982 35.6579V21.9737H121.767C124.288 21.9737 126.145 22.6316 127.206 23.9474C128.267 25.2632 128.797 27.3684 128.797 30.2632C128.797 32.2369 128.665 33.6842 128.267 34.8684C127.869 36.0527 127.471 36.8421 126.808 37.5C126.145 38.0263 125.481 38.4211 124.818 38.6842C124.022 38.8158 123.226 38.9474 122.431 38.9474C121.635 38.8158 121.104 38.8158 120.573 38.6842C120.176 38.5526 119.778 38.4211 119.512 38.1579Z" fill="#1A9F29"/>
<path d="M320.735 50H80.25V53.1579H320.735V50Z" fill="#1A9F29"/>
<path d="M301.501 28.5526C302.165 29.4737 302.695 30.2631 303.358 31.0526C303.889 31.8421 304.552 32.6316 305.083 33.421C305.613 34.2105 306.144 35 306.807 35.7895C307.47 36.7105 308.001 37.5 308.532 38.421C309.062 39.2105 309.46 40.1316 309.858 40.921L321 41.0526C319.806 39.8684 318.745 38.6842 317.551 37.5C316.49 36.3158 315.562 35.2631 314.898 34.6052C313.837 33.421 312.909 32.3684 312.113 31.4473C311.184 30.3947 310.389 29.4737 309.593 28.5526C308.797 27.6316 308.001 26.5789 307.338 25.6579C306.675 24.7368 305.879 23.5526 305.215 22.5L305.746 21.8421C306.542 20.7895 307.47 19.7368 308.532 18.421C309.593 17.1052 310.654 15.7895 311.848 14.6052C313.041 13.2895 314.103 12.1052 315.296 11.0526C316.49 9.99998 317.419 9.21051 318.347 8.55261H310.654C310.389 9.21051 309.991 9.99998 309.46 10.921C308.929 11.8421 308.399 12.8947 307.603 13.9473C306.94 15 306.144 16.1842 305.481 17.3684C304.685 18.5526 304.022 19.6052 303.226 20.6579C302.43 21.7105 301.767 22.7631 301.103 23.5526C300.44 24.4737 299.91 25.1316 299.512 25.7895C300.175 26.7105 300.838 27.6316 301.501 28.5526Z" fill="#1A9F29"/>
<path d="M300.572 39.7369C300.44 39.7369 300.307 39.6053 299.909 39.6053C299.511 39.4737 299.246 39.3421 299.113 39.2105C298.981 39.079 298.848 38.8158 298.715 38.4211C298.715 38.0263 298.583 37.6316 298.583 37.1053V12.1053C298.583 11.579 298.583 11.0526 298.715 10.7895C298.715 10.3948 298.848 10.1316 299.113 10C299.246 9.86844 299.511 9.73686 299.909 9.60528C300.307 9.4737 300.44 9.4737 300.572 9.4737V8.28949H291.685H289.828V9.34212C289.961 9.34212 290.093 9.4737 290.491 9.4737C290.889 9.60528 291.155 9.73686 291.287 9.86844C291.42 10 291.552 10.2632 291.685 10.6579C291.685 11.0526 291.818 11.4474 291.818 11.9737V36.9737C291.818 37.5 291.818 38.0263 291.685 38.2895C291.685 38.6842 291.553 38.9474 291.287 39.079C291.155 39.2105 290.889 39.4737 290.491 39.4737C290.093 39.6053 289.961 39.6053 289.828 39.6053V40.6579H300.572V39.7369Z" fill="#1A9F29"/>
<path d="M229.21 36.8421C229.608 35 230.404 32.3685 231.465 29.079H241.944L243.403 33.2895C244.066 35.1316 244.597 36.7106 244.862 38.0263C245.26 39.3421 245.525 40.2632 245.525 40.9211H253.882C253.484 40.2632 253.086 39.3421 252.556 38.2895C252.025 37.2369 251.362 35.6579 250.699 33.6842L243.138 12.3684C242.74 11.4474 242.607 10.6579 242.475 10C242.342 9.34213 242.342 8.81582 242.209 8.42108H232.792V9.47371C232.924 9.47371 233.057 9.60529 233.455 9.60529C233.853 9.73687 234.118 9.86845 234.251 10C234.383 10.1316 234.516 10.3948 234.649 10.7895C234.649 11.0527 234.649 11.1842 234.649 11.4474C234.649 12.2369 234.516 13.0263 234.251 13.5527L228.945 26.4474C228.016 28.8158 227.088 30.9211 226.425 32.5C225.761 34.079 225.098 35.5263 224.7 36.579C224.17 37.6316 223.772 38.5527 223.374 39.2106C222.976 39.8684 222.711 40.3948 222.445 40.9211H228.414C228.547 40 228.812 38.6842 229.21 36.8421ZM236.771 13.6842L241.148 26.8421H232.128L236.771 13.6842Z" fill="#1A9F29"/>
<path d="M266.483 39.7369H266.218C266.086 39.7369 265.953 39.6053 265.555 39.6053C265.157 39.4737 264.892 39.3421 264.759 39.2105C264.626 39.079 264.494 38.8158 264.361 38.4211C264.361 38.0263 264.229 37.6316 264.229 37.1053V24.6053H276.962V36.9737C276.962 37.5 276.962 38.0263 276.83 38.2895C276.83 38.6842 276.697 38.9474 276.432 39.079C276.299 39.2105 276.034 39.4737 275.636 39.4737C275.238 39.6053 275.105 39.6053 274.973 39.6053V40.6579H285.717V39.6053C285.584 39.6053 285.452 39.4737 285.054 39.4737C284.656 39.3421 284.391 39.2105 284.258 39.079C284.125 38.9474 283.993 38.6842 283.86 38.2895C283.86 37.8948 283.727 37.5 283.727 36.9737V30.5263V30.2632V18.4211V18.2895V11.8421C283.727 11.3158 283.727 10.7895 283.86 10.5263C283.86 10.1316 283.993 9.86844 284.258 9.73686C284.391 9.60528 284.656 9.4737 285.054 9.34212C285.452 9.21054 285.584 9.21054 285.717 9.21054V8.28949H276.83H275.238V9.34212C275.371 9.34212 275.503 9.4737 275.901 9.4737C276.299 9.60528 276.564 9.73686 276.697 9.86844C276.83 10 276.962 10.2632 277.095 10.6579C277.095 11.0526 277.228 11.4474 277.228 11.9737V22.3684H264.494V11.9737C264.494 11.4474 264.494 10.9211 264.626 10.6579C264.626 10.2632 264.759 10 265.024 9.86844C265.157 9.73686 265.422 9.60528 265.82 9.4737C266.218 9.34212 266.351 9.34212 266.483 9.34212V8.28949H257.596H255.739V9.34212C255.872 9.34212 256.005 9.4737 256.402 9.4737C256.8 9.60528 257.066 9.73686 257.198 9.86844C257.331 10 257.464 10.2632 257.596 10.6579C257.596 11.0526 257.729 11.4474 257.729 11.9737V12.7632V35.2632V35.3948V37.1053C257.729 37.6316 257.729 38.0263 257.596 38.4211C257.596 38.8158 257.464 39.079 257.198 39.2105C257.066 39.3421 256.8 39.6053 256.402 39.6053C256.005 39.7369 255.872 39.7369 255.739 39.7369V40.7895H266.483V39.7369Z" fill="#1A9F29"/>
<path d="M58.364 11.7105C57.7008 10.7895 57.0376 9.86844 56.3743 8.94739L19.6318 29.8684L1.85739 19.7369C1.45946 20.9211 1.19417 21.9737 1.06152 23.1579L19.7644 33.8158L58.364 11.7105Z" fill="#1A9F29"/>
<path d="M19.6319 37.7631L0.531082 26.8421C0.398437 27.5 0.398438 28.2894 0.398438 28.9473C0.398438 46.1842 14.4588 60.2631 31.9679 60.2631C49.3443 60.2631 63.5373 46.3158 63.5373 28.9473C63.5373 23.8158 62.3435 18.9473 60.0885 14.7368L19.6319 37.7631Z" fill="#1A9F29"/>
<path d="M53.8535 6.31581C52.925 5.39476 51.9965 4.73686 51.068 3.94739L19.6312 21.9737L4.5097 13.4211C3.97913 14.3421 3.44855 15.3948 2.91797 16.4474L19.4985 25.9211L53.8535 6.31581Z" fill="#1A9F29"/>
<path d="M47.885 1.84211C46.6912 1.18421 45.4973 0.526316 44.1709 0L19.6316 14.0789L8.62215 7.89474C7.82628 8.68421 7.16306 9.60526 6.36719 10.5263L19.499 18.0263L47.885 1.84211Z" fill="#1A9F29"/>
</g>
<defs>
<clipPath id="clip0">
<rect width="321" height="61" fill="white"/>
</clipPath>
</defs>
</svg>
